# File created by Blade
# Date/Time:  Mon Nov 15 14:44:42 2010
#---------------------------------------------------------
:version 1.10
:name HOM
:units
  mass 1.0
  length 1.000000
  angle deg
:documentation
     Acclaim Skeleton File
:root
   axis xyz
   order TX TY TZ RX RY RZ
   position 0.000000 0.000000 0.000000
   orientation 0 0 0
:bonedata
   begin
      id 1
      name LeftUpLeg_dum
      direction 1.000000 0.000000 0.000000
      length 4.719518
      axis 0.0 0.0 0.0 xyz
   end
   begin
      id 2
      name RightUpLeg_dum
      direction -1.000000 0.000000 0.000000
      length 4.719518
      axis 0.0 0.0 0.0 xyz
   end
   begin
      id 3
      name Spine_dum
      direction 0.000000 1.000000 0.000000
      length 0.039370
      axis 0.0 0.0 0.0 xyz
   end
   begin
      id 4
      name LeftUpLeg
      direction 0.000000 -1.000000 0.000000
      length 19.141694
      axis 0.0 0.0 0.0 xyz
      dof rx ry rz
   end
   begin
      id 5
      name LeftLeg
      direction 0.000000 -1.000000 0.000000
      length 19.555040
      axis 0.0 0.0 0.0 xyz
      dof rx ry rz
   end
   begin
      id 6
      name LeftFoot
      direction 0.000000 -0.258819 0.965926
      length 6.929396
      axis 15.0 0.0 0.0 xyz
      dof rx ry rz
   end
   begin
      id 7
      name LeftToeBase
      direction 0.000000 0.000000 1.000000
      length 2.952750
      axis 0.0 0.0 0.0 xyz
      dof rx ry rz
   end
   begin
      id 8
      name RightUpLeg
      direction 0.000000 -1.000000 0.000000
      length 19.141694
      axis 0.0 0.0 0.0 xyz
      dof rx ry rz
   end
   begin
      id 9
      name RightLeg
      direction 0.000000 -1.000000 0.000000
      length 19.555040
      axis 0.0 0.0 0.0 xyz
      dof rx ry rz
   end
   begin
      id 10
      name RightFoot
      direction 0.000000 -0.258819 0.965926
      length 6.929396
      axis 15.0 0.0 0.0 xyz
      dof rx ry rz
   end
   begin
      id 11
      name RightToeBase
      direction 0.000000 0.000000 1.000000
      length 2.952750
      axis 0.0 0.0 0.0 xyz
      dof rx ry rz
   end
   begin
      id 12
      name Spine
      direction 0.000000 1.000000 0.000000
      length 11.965764
      axis 0.0 0.0 0.0 xyz
      dof rx ry rz
   end
   begin
      id 13
      name Spine1
      direction 0.000000 1.000000 0.000000
      length 0.000000
      axis 0.0 0.0 0.0 xyz
      dof rx ry rz
   end
   begin
      id 14
      name Spine1_dum1
      direction 0.000000 1.000000 0.000000
      length 9.788721
      axis 0.0 0.0 0.0 xyz
   end
   begin
      id 15
      name Spine1_dum2
      direction 0.000000 1.000000 0.000000
      length 9.788721
      axis 0.0 0.0 0.0 xyz
   end
   begin
      id 16
      name Spine1_dum3
      direction 0.000000 1.000000 0.000000
      length 9.788721
      axis 0.0 0.0 0.0 xyz
   end
   begin
      id 17
      name Neck
      direction 0.000000 1.000000 0.000000
      length 7.029632
      axis 0.0 0.0 0.0 xyz
      dof rx ry rz
   end
   begin
      id 18
      name Head
      direction 0.000000 1.000000 0.000000
      length 4.527550
      axis 0.0 0.0 0.0 xyz
      dof rx ry rz
   end
   begin
      id 19
      name LeftShoulder
      direction 1.000000 -0.000004 0.000000
      length 9.320257
      axis 0.0 0.0 -90.0 xyz
      dof rx ry rz
   end
   begin
      id 20
      name LeftArm
      direction 1.000000 -0.000004 0.000000
      length 12.801352
      axis 0.0 0.0 -90.0 xyz
      dof rx ry rz
   end
   begin
      id 21
      name LeftForeArm
      direction 1.000000 -0.000004 0.000000
      length 11.278127
      axis 0.0 0.0 -90.0 xyz
      dof rx ry rz
   end
   begin
      id 22
      name LeftHand
      direction 0.000000 0.000000 0.000000
      length 0.000000
      axis 0.0 0.0 -90.0 xyz
      dof rx ry rz
   end
   begin
      id 23
      name LeftHand_dum1
      direction 0.000000 0.000000 0.000000
      length 0.000000
      axis 0.0 0.0 -90.0 xyz
   end
   begin
      id 24
      name LeftHand_dum2
      direction 1.000000 -0.000004 0.000000
      length 3.937000
      axis 0.0 0.0 -90.0 xyz
   end
   begin
      id 25
      name LeftHandThumb
      direction 0.000000 0.000000 1.000000
      length 3.937000
      axis 0.0 0.0 -90.0 xyz
      dof rx ry rz
   end
   begin
      id 26
      name RightShoulder
      direction -1.000000 -0.000004 0.000000
      length 9.320257
      axis 0.0 0.0 90.0 xyz
      dof rx ry rz
   end
   begin
      id 27
      name RightArm
      direction -1.000000 -0.000004 0.000000
      length 12.801352
      axis 0.0 0.0 90.0 xyz
      dof rx ry rz
   end
   begin
      id 28
      name RightForeArm
      direction -1.000000 -0.000004 0.000000
      length 11.278127
      axis 0.0 0.0 90.0 xyz
      dof rx ry rz
   end
   begin
      id 29
      name RightHand
      direction 0.000000 0.000000 0.000000
      length 0.000000
      axis 0.0 0.0 90.0 xyz
      dof rx ry rz
   end
   begin
      id 30
      name RightHand_dum1
      direction 0.000000 0.000000 0.000000
      length 0.000000
      axis 0.0 0.0 90.0 xyz
   end
   begin
      id 31
      name RightHand_dum2
      direction -1.000000 -0.000004 0.000000
      length 5.393690
      axis 0.0 0.0 90.0 xyz
   end
   begin
      id 32
      name RightHandThumb
      direction 0.000000 0.000000 1.000000
      length 3.937000
      axis 0.0 0.0 90.0 xyz
      dof rx ry rz
   end
:hierarchy
   begin
      root LeftUpLeg_dum RightUpLeg_dum Spine_dum
      LeftUpLeg_dum LeftUpLeg
      RightUpLeg_dum RightUpLeg
      Spine_dum Spine
      LeftUpLeg LeftLeg
      LeftLeg LeftFoot
      LeftFoot LeftToeBase
      RightUpLeg RightLeg
      RightLeg RightFoot
      RightFoot RightToeBase
      Spine Spine1
      Spine1 Spine1_dum1 Spine1_dum2 Spine1_dum3
      Spine1_dum1 Neck
      Spine1_dum2 LeftShoulder
      Spine1_dum3 RightShoulder
      Neck Head
      LeftShoulder LeftArm
      LeftArm LeftForeArm
      LeftForeArm LeftHand
      LeftHand LeftHand_dum1 LeftHand_dum2
      LeftHand_dum1 LeftHandThumb
      RightShoulder RightArm
      RightArm RightForeArm
      RightForeArm RightHand
      RightHand RightHand_dum1 RightHand_dum2
      RightHand_dum1 RightHandThumb
   end

# File created by Blade
# Date/Time:  Mon Nov 15 14:56:25 2010
# Frame Rate: 200.000 fps
#------------------------------------------------------
:FULLY-SPECIFIED
:DEGREES
384
root  6.406335 37.937893 -28.116066 -10.149622 -12.457397 2.539791
LeftUpLeg  -17.995089 3.876127 -6.023532
LeftLeg  20.876972 -0.000000 0.000000
LeftFoot  11.154941 18.164679 10.086627
LeftToeBase  -22.846595 0.000000 -0.000000
RightUpLeg  25.604134 -3.179801 -10.799299
RightLeg  33.506869 -0.000000 0.000000
RightFoot  25.570554 0.910235 -9.570200
RightToeBase  -67.510319 0.000000 -0.000000
Spine  12.828028 3.110275 -0.891614
Spine1  2.393720 5.017183 -6.831256
Neck  14.260264 -1.973945 -2.067104
Head  -21.278608 -3.496484 3.405196
LeftShoulder  -16.767902 16.720220 -4.000567
LeftArm  4.829448 1.247940 -77.139939
LeftForeArm  7.599377 -0.000000 0.000000
LeftHand  -19.183975 17.116958 -13.413505
LeftHandThumb  0.000000 -0.000000 0.000000
RightShoulder  -9.051872 -10.859856 -0.306183
RightArm  20.956814 -19.414078 73.544022
RightForeArm  45.982508 -0.000000 0.000000
RightHand  0.289614 -1.680936 12.069256
RightHandThumb  0.000000 -0.000000 0.000000
385
root  6.431989 37.983924 -27.685319 -10.549400 -12.201076 2.915744
LeftUpLeg  -17.320813 4.012490 -6.551144
LeftLeg  21.293107 -0.000000 0.000000
LeftFoot  10.877089 18.031449 9.886719
LeftToeBase  -22.362096 0.000000 -0.000000
RightUpLeg  24.926791 -3.224252 -11.217728
RightLeg  35.466846 -0.000000 0.000000
RightFoot  27.122580 0.298013 -9.071083
RightToeBase  -59.574210 0.000000 -0.000000
Spine  13.049645 3.039483 -1.171096
Spine1  2.382567 4.815156 -6.912961
Neck  14.166616 -1.918344 -2.095334
Head  -21.052394 -3.548525 3.468021
LeftShoulder  -16.633515 16.746344 -3.887163
LeftArm  5.027423 1.721686 -77.393931
LeftForeArm  7.677689 -0.000000 0.000000
LeftHand  -19.492666 17.325304 -13.947185
LeftHandThumb  0.000000 -0.000000 0.000000
RightShoulder  -9.228637 -10.896158 -0.372090
RightArm  20.555878 -19.388783 74.023027
RightForeArm  45.699770 -0.000000 0.000000
RightHand  0.367926 -1.792060 12.221491
RightHandThumb  0.000000 -0.000000 0.000000
386
root  6.457060 38.032926 -27.259798 -10.919858 -11.933846 3.252753
LeftUpLeg  -16.570307 4.168232 -7.014226
LeftLeg  21.570237 -0.000000 0.000000
LeftFoot  10.150469 18.033557 9.404651
LeftToeBase  -21.727511 0.000000 -0.000000
RightUpLeg  24.210015 -3.274706 -11.542593
RightLeg  37.300347 -0.000000 0.000000
RightFoot  28.381620 -0.584109 -8.579545
RightToeBase  -50.569205 0.000000 -0.000000
Spine  13.275892 2.954537 -1.416938
Spine1  2.357765 4.611527 -7.003157
Neck  14.100067 -1.867095 -2.106231
Head  -20.880858 -3.580107 3.499180
LeftShoulder  -16.470731 16.734332 -3.745351
LeftArm  5.222484 2.185342 -77.645198
LeftForeArm  7.809128 -0.000000 0.000000
LeftHand  -19.608595 17.321081 -14.248708
LeftHandThumb  0.000000 -0.000000 0.000000
RightShoulder  -9.379693 -10.983755 -0.405198
RightArm  20.188725 -19.377019 74.441410
RightForeArm  45.432774 -0.000000 0.000000
RightHand  0.323399 -1.834004 12.286615
RightHandThumb  0.000000 -0.000000 0.000000
387
root  6.480613 38.084285 -26.839693 -11.288342 -11.664497 3.587661
LeftUpLeg  -15.820933 4.330006 -7.475317
LeftLeg  21.847367 -0.000000 0.000000
LeftFoot  9.423859 18.029853 8.922596
LeftToeBase  -21.092926 0.000000 -0.000000
RightUpLeg  23.493499 -3.329212 -11.866817
RightLeg  39.133849 -0.000000 0.000000
RightFoot  29.633395 -1.476788 -8.107377
RightToeBase  -41.564200 0.000000 -0.000000
Spine  13.502484 2.870561 -1.663095
Spine1  2.333292 4.407859 -7.093240
Neck  14.033510 -1.815858 -2.117187
Head  -20.709333 -3.611782 3.530245
LeftShoulder  -16.307989 16.721934 -3.603584
LeftArm  5.415576 2.649846 -77.894970
LeftForeArm  7.940566 -0.000000 0.000000
LeftHand  -19.724497 17.316275 -14.550215
LeftHandThumb  0.000000 -0.000000 0.000000
RightShoulder  -9.530743 -11.071437 -0.438080
RightArm  19.821703 -19.362727 74.859670
RightForeArm  45.165778 -0.000000 0.000000
RightHand  0.278823 -1.875898 12.351774
RightHandThumb  0.000000 -0.000000 0.000000
388
root  6.501927 38.137103 -26.426254 -11.596389 -11.371192 3.870135
LeftUpLeg  -15.026539 4.461874 -7.897792
LeftLeg  21.944144 -0.000000 0.000000
LeftFoot  8.853780 17.817239 8.832738
LeftToeBase  -20.812842 0.000000 -0.000000
RightUpLeg  22.754589 -3.415015 -12.090968
RightLeg  40.736540 -0.000000 0.000000
RightFoot  30.670708 -2.783863 -7.537823
RightToeBase  -35.345470 0.000000 -0.000000
Spine  13.716873 2.755362 -1.890261
Spine1  2.290088 4.182173 -7.145033
Neck  13.926193 -1.709785 -2.146853
Head  -20.507302 -3.667957 3.560446
LeftShoulder  -16.166774 16.659419 -3.485781
LeftArm  5.608346 3.140541 -78.112114
LeftForeArm  8.173618 -0.000000 0.000000
LeftHand  -20.166710 17.352897 -15.073217
LeftHandThumb  0.000000 -0.000000 0.000000
RightShoulder  -9.640966 -11.163067 -0.472827
RightArm  19.484450 -19.402821 75.201126
RightForeArm  44.855842 -0.000000 0.000000
RightHand  0.224647 -1.869827 12.375174
RightHandThumb  0.000000 -0.000000 0.000000
389
root  6.522556 38.192772 -26.017584 -11.902645 -11.076408 4.150710
LeftUpLeg  -14.232993 4.599566 -8.318471
LeftLeg  22.040922 -0.000000 0.000000
LeftFoot  8.284729 17.603787 8.745209
LeftToeBase  -20.532758 0.000000 -0.000000
RightUpLeg  22.015953 -3.503696 -12.314011
RightLeg  42.339232 -0.000000 0.000000
RightFoot  31.696375 -4.100972 -6.991298
RightToeBase  -29.126739 0.000000 -0.000000
Spine  13.931698 2.641014 -2.117836
Spine1  2.247100 3.956448 -7.196641
Neck  13.818826 -1.603767 -2.176715
Head  -20.305288 -3.724238 3.590451
LeftShoulder  -16.025740 16.596626 -3.368177
LeftArm  5.799350 3.631959 -78.327713
LeftForeArm  8.406670 -0.000000 0.000000
LeftHand  -20.609339 17.385662 -15.596599
LeftHandThumb  0.000000 -0.000000 0.000000
RightShoulder  -9.751167 -11.254761 -0.507406
RightArm  19.146868 -19.441016 75.542908
RightForeArm  44.545906 -0.000000 0.000000
RightHand  0.170474 -1.863735 12.398569
RightHandThumb  0.000000 -0.000000 0.000000
390
root  6.544474 38.252405 -25.611361 -12.155344 -10.865166 4.381499
LeftUpLeg  -13.380550 4.703657 -8.678264
LeftLeg  21.945664 -0.000000 0.000000
LeftFoot  7.754134 17.509851 8.764512
LeftToeBase  -20.480766 0.000000 -0.000000
RightUpLeg  21.134824 -3.595034 -12.458061
RightLeg  44.018484 -0.000000 0.000000
RightFoot  31.942388 -5.472693 -7.170086
RightToeBase  -32.665454 0.000000 -0.000000
Spine  14.060330 2.559193 -2.291672
Spine1  2.298624 3.794734 -7.228588
Neck  13.714495 -1.503784 -2.205145
Head  -20.156188 -3.762862 3.586509
LeftShoulder  -15.859299 16.523774 -3.276463
LeftArm  6.092767 4.083480 -78.509917
LeftForeArm  8.597182 -0.000000 0.000000
LeftHand  -20.576028 17.227895 -15.848611
LeftHandThumb  0.000000 -0.000000 0.000000
RightShoulder  -9.857293 -11.346104 -0.491869
RightArm  18.882658 -19.486043 75.773774
RightForeArm  44.197204 -0.000000 0.000000
RightHand  0.163987 -1.935206 12.437165
RightHandThumb  0.000000 -0.000000 0.000000
391
root  6.565701 38.315940 -25.210113 -12.406998 -10.652929 4.611175
LeftUpLeg  -12.528647 4.813071 -9.036519
LeftLeg  21.850405 -0.000000 0.000000
LeftFoot  7.223780 17.416090 8.784715
LeftToeBase  -20.428773 0.000000 -0.000000
RightUpLeg  20.253838 -3.688572 -12.600701
RightLeg  45.697736 -0.000000 0.000000
RightFoot  32.193346 -6.843630 -7.355265
RightToeBase  -36.204169 0.000000 -0.000000
Spine  14.189203 2.477763 -2.465681
Spine1  2.350230 3.633047 -7.260674
Neck  13.610120 -1.403854 -2.233756
Head  -20.007079 -3.801475 3.582467
LeftShoulder  -15.693043 16.450667 -3.185005
LeftArm  6.384916 4.535924 -78.689907
LeftForeArm  8.787694 -0.000000 0.000000
LeftHand  -20.542020 17.070270 -16.100504
LeftHandThumb  0.000000 -0.000000 0.000000
RightShoulder  -9.963477 -11.437418 -0.476155
RightArm  18.618184 -19.530065 76.004921
RightForeArm  43.848503 -0.000000 0.000000
RightHand  0.157452 -2.006673 12.475771
RightHandThumb  0.000000 -0.000000 0.000000
392
root  6.585032 38.384141 -24.816345 -12.574270 -10.472028 4.789773
LeftUpLeg  -11.703443 4.805051 -9.312386
LeftLeg  21.632847 -0.000000 0.000000
LeftFoot  6.790525 17.376229 8.583408
LeftToeBase  -20.417695 0.000000 -0.000000
RightUpLeg  19.258478 -3.784583 -12.643000
RightLeg  47.304417 -0.000000 0.000000
RightFoot  31.408266 -8.071291 -7.537563
RightToeBase  -36.113999 0.000000 -0.000000
Spine  14.283301 2.394522 -2.590399
Spine1  2.371914 3.488482 -7.317372
Neck  13.569050 -1.362658 -2.235315
Head  -19.989527 -3.779657 3.548602
LeftShoulder  -15.514278 16.333534 -3.091641
LeftArm  6.682207 5.038600 -78.814528
LeftForeArm  9.031006 -0.000000 0.000000
LeftHand  -20.517362 16.776737 -16.218395
LeftHandThumb  0.000000 -0.000000 0.000000
RightShoulder  -10.056175 -11.544306 -0.399403
RightArm  18.407712 -19.610522 76.150597
RightForeArm  43.447654 -0.000000 0.000000
RightHand  0.149042 -1.941253 12.499906
RightHandThumb  0.000000 -0.000000 0.000000
393
root  6.602121 38.455633 -24.427809 -12.740871 -10.290616 4.967730
LeftUpLeg  -10.878217 4.800992 -9.588339
LeftLeg  21.415288 -0.000000 0.000000
LeftFoot  6.357515 17.334917 8.382467
LeftToeBase  -20.406618 0.000000 -0.000000
RightUpLeg  18.263076 -3.881312 -12.683625
RightLeg  48.911099 -0.000000 0.000000
RightFoot  30.624572 -9.301311 -7.703398
RightToeBase  -36.023828 0.000000 -0.000000
Spine  14.377574 2.311486 -2.715247
Spine1  2.393738 3.343939 -7.374115
Neck  13.527979 -1.321463 -2.236903
Head  -19.971987 -3.757828 3.514745
LeftShoulder  -15.335819 16.216122 -2.998714
LeftArm  6.978640 5.541913 -78.936629
LeftForeArm  9.274317 -0.000000 0.000000
LeftHand  -20.492112 16.483253 -16.336236
LeftHandThumb  0.000000 -0.000000 0.000000
RightShoulder  -10.149054 -11.651073 -0.322445
RightArm  18.196918 -19.690474 76.296658
RightForeArm  43.046806 -0.000000 0.000000
RightHand  0.140661 -1.875829 12.524030
RightHandThumb  0.000000 -0.000000 0.000000
394
root  6.615115 38.529222 -24.042937 -12.823910 -10.162909 5.028933
LeftUpLeg  -10.079437 4.826460 -9.735844
LeftLeg  21.121486 -0.000000 0.000000
LeftFoot  5.917922 17.325100 8.318744
LeftToeBase  -20.221180 0.000000 -0.000000
RightUpLeg  17.200196 -4.015149 -12.568422
RightLeg  50.344334 -0.000000 0.000000
RightFoot  29.378512 -10.233534 -8.170519
RightToeBase  -36.020848 0.000000 -0.000000
Spine  14.370991 2.202691 -2.764405
Spine1  2.487822 3.220038 -7.373021
Neck  13.431804 -1.248247 -2.241168
Head  -19.856742 -3.708547 3.413686
LeftShoulder  -15.142265 16.020915 -2.935526
LeftArm  7.249347 5.924154 -79.038666
LeftForeArm  9.521676 -0.000000 0.000000
LeftHand  -20.260599 16.301826 -16.385948
LeftHandThumb  0.000000 -0.000000 0.000000
RightShoulder  -10.186517 -11.725783 -0.245108
RightArm  18.051771 -19.826261 76.364331
RightForeArm  42.558602 -0.000000 0.000000
RightHand  0.123494 -1.868449 12.534740
RightHandThumb  0.000000 -0.000000 0.000000
395
root  6.627331 38.605128 -23.662190 -12.906779 -10.035114 5.089923
LeftUpLeg  -9.280695 4.853974 -9.882985
LeftLeg  20.827685 -0.000000 0.000000
LeftFoot  5.478364 17.314817 8.255106
LeftToeBase  -20.035742 0.000000 -0.000000
RightUpLeg  16.136873 -4.146831 -12.450731
RightLeg  51.777569 -0.000000 0.000000
RightFoot  28.136381 -11.175533 -8.618312
RightToeBase  -36.017868 0.000000 -0.000000
Spine  14.364501 2.093890 -2.813547
Spine1  2.581892 3.096135 -7.372131
Neck  13.335626 -1.175037 -2.245555
Head  -19.741591 -3.659063 3.312732
LeftShoulder  -14.949124 15.825505 -2.873086
LeftArm  7.519562 6.306870 -79.138958
LeftForeArm  9.769035 -0.000000 0.000000
LeftHand  -20.029134 16.120593 -16.436377
LeftHandThumb  0.000000 -0.000000 0.000000
RightShoulder  -10.224094 -11.800444 -0.167701
RightArm  17.906329 -19.961886 76.432427
RightForeArm  42.070398 -0.000000 0.000000
RightHand  0.106328 -1.861065 12.545449
RightHandThumb  0.000000 -0.000000 0.000000
